<?xml version="1.0" encoding="UTF-8" standalone="no"?>
<svg
   xmlns:dc="http://purl.org/dc/elements/1.1/"
   xmlns:cc="http://creativecommons.org/ns#"
   xmlns:rdf="http://www.w3.org/1999/02/22-rdf-syntax-ns#"
   xmlns:svg="http://www.w3.org/2000/svg"
   xmlns="http://www.w3.org/2000/svg"
   xmlns:xlink="http://www.w3.org/1999/xlink"
   xmlns:sodipodi="http://sodipodi.sourceforge.net/DTD/sodipodi-0.dtd"
   xmlns:inkscape="http://www.inkscape.org/namespaces/inkscape"
   width="210mm"
   height="297mm"
   viewBox="0 0 210 297"
   version="1.1"
   id="svg8"
   inkscape:version="1.0.2-2 (e86c870879, 2021-01-15)"
   sodipodi:docname="T800 - unifinished.svg">
  <defs
     id="defs2">
    <linearGradient
       inkscape:collect="always"
       id="linearGradient1937">
      <stop
         style="stop-color:#4d4d4d;stop-opacity:1;"
         offset="0"
         id="stop1933" />
      <stop
         style="stop-color:#4d4d4d;stop-opacity:0;"
         offset="1"
         id="stop1935" />
    </linearGradient>
    <linearGradient
       inkscape:collect="always"
       xlink:href="#linearGradient1937"
       id="linearGradient1939"
       x1="168.68135"
       y1="69.641678"
       x2="168.68135"
       y2="41.807446"
       gradientUnits="userSpaceOnUse" />
  </defs>
  <sodipodi:namedview
     id="base"
     pagecolor="#ffffff"
     bordercolor="#666666"
     borderopacity="1.0"
     inkscape:pageopacity="0.0"
     inkscape:pageshadow="2"
     inkscape:zoom="0.98994949"
     inkscape:cx="851.90692"
     inkscape:cy="401.20939"
     inkscape:document-units="mm"
     inkscape:current-layer="layer1"
     inkscape:document-rotation="0"
     showgrid="false"
     inkscape:snap-global="false"
     inkscape:window-width="1920"
     inkscape:window-height="1027"
     inkscape:window-x="-8"
     inkscape:window-y="22"
     inkscape:window-maximized="1" />
  <metadata
     id="metadata5">
    <rdf:RDF>
      <cc:Work
         rdf:about="">
        <dc:format>image/svg+xml</dc:format>
        <dc:type
           rdf:resource="http://purl.org/dc/dcmitype/StillImage" />
        <dc:title></dc:title>
      </cc:Work>
    </rdf:RDF>
  </metadata>
  <g
     inkscape:label="Layer 1"
     inkscape:groupmode="layer"
     id="layer1">
    <path
       style="fill:#000000;stroke-width:0.384319"
       d=""
       id="path1675"
       inkscape:connector-curvature="0" />
    <path
       style="fill:#000000;stroke-width:0.384319"
       d=""
       id="path1673"
       inkscape:connector-curvature="0" />
    <path
       style="fill:#000000;stroke-width:0.384319"
       d=""
       id="path1671"
       inkscape:connector-curvature="0" />
    <path
       style="fill:#000000;stroke-width:0.384319"
       d=""
       id="path1669"
       inkscape:connector-curvature="0" />
    <path
       style="fill:#000000;stroke-width:0.384319"
       d=""
       id="path1667"
       inkscape:connector-curvature="0" />
    <g
       id="g1190"
       transform="translate(98.27381,-0.75595238)">
      <g
         id="g1188">
        <g
           id="g1186">
          <g
             id="g1184">
            <g
               id="g1182">
              <path
                 style="fill:#666666;stroke:#000000;stroke-width:0.101684px;stroke-linecap:butt;stroke-linejoin:miter;stroke-opacity:1"
                 d="m 125.74652,63.175496 2.87608,-13.558624 2.46521,-7.395618 5.5467,-5.957578 c 0,0 8.21736,-5.135847 9.03909,-5.546716 0.82173,-0.410868 14.5858,-3.90324 15.40753,-4.108674 0.82173,-0.205435 14.99667,0 14.99667,0 l 11.91516,3.081508 9.65538,5.135841 c 0,0 5.95758,4.930414 6.77932,5.341282 0.82173,0.410868 3.28694,7.395617 3.28694,7.395617 l 1.64347,8.011915 0.6163,7.190179 0.61629,4.930412 -1.23259,3.492376 -1.84891,4.108675 -2.05434,4.519539 -0.20543,1.438039 0.41087,3.286938 0.82173,3.081509 c 0,0 0.20543,1.027166 0.20543,2.054337 0,1.027167 0.41087,1.848903 -0.82173,2.67064 -1.2326,0.821733 -1.8489,1.438035 -1.8489,1.438035 0,0 -0.61631,0.821736 -1.43804,1.232601 -0.82173,0.410868 -2.87607,1.848903 -2.87607,1.848903 0,0 -1.02717,1.027171 -1.02717,2.054338 0,1.02717 -0.20544,2.05434 -0.20544,2.87607 0,0.82174 -0.20543,1.23261 0,2.87608 0.20544,1.64347 0.20544,1.43803 0.6163,2.87607 0.41087,1.43804 0.61631,2.05434 1.02718,2.87607 0.41087,0.82174 2.05433,4.10868 2.25977,4.93041 0.20543,0.82174 -0.20544,-1.2326 0.41086,1.2326 0.6163,2.46521 1.23261,3.69781 0.6163,4.51954 -0.6163,0.82175 -3.90324,2.25978 -3.90324,2.25978 l -2.05433,1.64346 c 0,0 -1.2326,1.02718 -3.90324,2.25978 -2.67065,1.2326 -4.31411,1.2326 -5.75214,2.25978 -1.43805,1.02717 -1.02718,1.02717 -2.87608,1.8489 -1.84891,0.82173 -2.25978,1.43803 -3.69781,1.64346 -1.43803,0.20544 -1.8489,0 -3.90324,0.41087 -2.05434,0.41087 -3.90324,0.41087 -5.13584,0.41087 -1.23261,0 -4.10868,-0.20543 -5.54672,-0.20543 -1.43803,0 -3.0815,-0.41087 -5.13584,-0.61631 -2.05433,-0.20543 -5.34128,-1.43803 -6.16301,-1.64346 -0.82174,-0.20544 -7.39562,-1.64347 -7.39562,-1.64347 l -4.93041,-2.87607 -4.31411,-2.25978 -3.28693,-2.4652 -2.05435,-2.46521 c 0,0 -0.6163,-2.46521 0,-3.69781 0.6163,-1.2326 1.43804,-2.87607 1.84891,-4.3141 0.41087,-1.43804 1.43803,-4.31411 1.64347,-5.75215 0.20543,-1.43804 1.2326,-6.779312 1.2326,-6.779312 l 0.20543,-2.465206 -7.60105,-3.697811 -1.8489,-4.724973 1.02717,-4.108675 1.43804,-3.492376 -2.67064,-5.957579 -1.43803,-5.546713 -1.02718,-2.670636 z"
                 id="path1152"
                 inkscape:connector-curvature="0" />
              <path
                 style="fill:#000000;fill-opacity:1;stroke:#000000;stroke-width:0.101684px;stroke-linecap:butt;stroke-linejoin:miter;stroke-opacity:1"
                 d="m 143.62962,95.111361 c 0,0 9.03909,0.256794 10.2717,0.873093 0,0 0.9758,0.462228 -1e-5,1.078531 0,0 -2.67064,0.462225 -7.60105,2.002977 l -3.64645,0.719019 -2.97879,0.102717 -3.36397,-1.258281 1.15556,-2.799037 4.26275,0.205434 z"
                 id="path1154"
                 inkscape:connector-curvature="0"
                 sodipodi:nodetypes="cccccccccc" />
              <path
                 inkscape:connector-curvature="0"
                 id="path1156"
                 d="m 192.62106,95.111361 c 0,0 -9.03908,0.256794 -10.27169,0.873093 0,0 -0.97581,0.462228 0,1.078531 0,0 2.67064,0.462225 7.60105,2.002977 l 3.64645,0.719019 2.97879,0.102717 3.44929,-1.380982 -1.24088,-2.676336 -4.26275,0.205434 z"
                 style="fill:#000000;fill-opacity:1;stroke:#000000;stroke-width:0.101684px;stroke-linecap:butt;stroke-linejoin:miter;stroke-opacity:1"
                 sodipodi:nodetypes="cccccccccc" />
              <path
                 inkscape:connector-curvature="0"
                 id="path1158"
                 d="m 168.16881,83.784271 a 4.4369118,8.8971056 47.673574 0 0 -2.65976,2.06486 4.4369118,8.8971056 47.673574 0 0 -3.23082,9.163698 4.4369118,8.8971056 47.673574 0 0 5.89058,-0.344885 8.8971056,4.4369118 42.326426 0 0 5.89059,0.344885 8.8971056,4.4369118 42.326426 0 0 -3.23084,-9.163698 8.8971056,4.4369118 42.326426 0 0 -2.65975,-2.06486 z"
                 style="fill:#000000;fill-opacity:1;fill-rule:nonzero;stroke:none;stroke-width:3.55896;stroke-linecap:round;stroke-linejoin:miter;stroke-miterlimit:4;stroke-dasharray:none;stroke-dashoffset:0;stroke-opacity:1;paint-order:normal" />
              <path
                 style="fill:none;fill-opacity:1;fill-rule:nonzero;stroke:#000000;stroke-width:3.55896;stroke-linecap:round;stroke-linejoin:round;stroke-miterlimit:4;stroke-dasharray:none;stroke-dashoffset:0;stroke-opacity:1;paint-order:markers fill stroke"
                 d="m 143.50403,96.852147 c -7.65625,0.731472 -10.34253,-0.554235 -13.07543,-3.954851 -3.64152,-9.079663 2.28907,-9.884105 0.45664,-13.083165 -2.32925,-4.066403 -3.27874,-5.989161 -5.1437,-14.327591 0.94057,-6.484153 1.1307,-7.38217 3.2609,-18.790183 3.48644,-11.762018 20.54059,-20.720376 38.92314,-20.30971"
                 id="path1160"
                 inkscape:connector-curvature="0"
                 sodipodi:nodetypes="ccsccc" />
              <path
                 style="fill:none;stroke:#000000;stroke-width:3.55896;stroke-linecap:round;stroke-linejoin:miter;stroke-miterlimit:4;stroke-dasharray:none;stroke-opacity:1"
                 d="m 137.9525,98.958906 c 0,0 0.32275,4.296664 -0.89543,8.772334 -1.26679,4.65428 -4.35608,7.9158 -3.77503,11.94687 0.58105,4.03106 3.78832,4.51002 8.53285,6.84608 7.4319,4.47869 8.45844,4.51714 12.38328,5.9745 9.73539,1.71156 12.42004,1.41632 14.49005,1.48895"
                 id="path1162"
                 inkscape:connector-curvature="0"
                 sodipodi:nodetypes="cscccc" />
              <path
                 sodipodi:nodetypes="ccsccc"
                 inkscape:connector-curvature="0"
                 id="path1164"
                 d="m 192.83359,96.852147 c 7.65625,0.731472 10.34253,-0.554235 13.07543,-3.954851 3.64153,-9.079663 -2.28906,-9.884105 -0.45663,-13.083165 2.32924,-4.066403 3.27873,-5.989161 5.1437,-14.327591 -0.94058,-6.484153 -1.13071,-7.38217 -3.2609,-18.790183 -3.48645,-11.762018 -20.5406,-20.720376 -38.92314,-20.30971"
                 style="fill:none;fill-opacity:1;fill-rule:nonzero;stroke:#000000;stroke-width:3.55896;stroke-linecap:round;stroke-linejoin:round;stroke-miterlimit:4;stroke-dasharray:none;stroke-dashoffset:0;stroke-opacity:1;paint-order:markers fill stroke" />
              <path
                 sodipodi:nodetypes="cscccc"
                 inkscape:connector-curvature="0"
                 id="path1166"
                 d="m 198.38512,98.958906 c 0,0 -0.32275,4.296664 0.89543,8.772334 1.2668,4.65428 4.35608,7.9158 3.77504,11.94687 -0.58106,4.03106 -3.78833,4.51002 -8.53285,6.84608 -7.43191,4.47869 -8.45845,4.51714 -12.38329,5.9745 -9.73539,1.71156 -12.42004,1.41632 -14.49004,1.48895"
                 style="fill:none;stroke:#000000;stroke-width:3.55896;stroke-linecap:round;stroke-linejoin:miter;stroke-miterlimit:4;stroke-dasharray:none;stroke-opacity:1" />
              <path
                 id="path1168"
                 d="m 153.08283,63.880865 c -0.34772,0.264619 -0.15533,-0.05622 -0.11916,0.372978 3.03618,1.451629 4.23545,3.062696 5.39742,4.367668 0.87949,1.433362 1.06947,2.609637 1.06947,2.609637 0.0387,0.591882 0.93049,0.518112 0.87148,-0.0721 0,0 -0.55361,-2.405713 -1.52945,-3.996081 -1.29488,-1.369622 -3.03064,-2.817638 -4.5627,-3.249932 0,0 -1.08335,-0.03086 -1.12706,-0.03217 z m -11.51022,2.168346 c -0.10585,-0.0012 -0.20536,-7.69e-4 -0.29749,7.68e-4 -1.14136,0.02022 -2.46007,0.309858 -3.46086,0.968189 -0.67139,0.441649 -1.26098,1.112628 -1.51573,1.874807 -0.39099,1.16973 -0.37927,2.573818 0.12849,3.697784 0.0873,0.193112 0.25772,0.380726 0.46216,0.436529 0.13976,0.03816 0.31334,-0.0027 0.42381,-0.09652 0.0863,-0.07323 0.0635,-0.221553 0.12829,-0.314389 0.61348,-0.879553 2.0158,-2.349491 2.37529,-2.169733 0,0 0.24389,-0.01288 0.28242,0.398001 l 0.01,-0.0068 c 0.0731,1.320864 0.25978,2.794891 0.25978,4.24374 0,1.54782 0.50984,2.926728 1.46131,4.102734 -1.29108,0.457743 -1.69248,0.98189 -1.69248,0.98189 -0.51359,0.564946 0,0.924296 0,0.924296 3.03015,-0.359508 5.62382,0.950114 5.62382,0.950114 l -0.0214,-0.05998 c 1.75374,0.759476 3.89064,1.279599 6.34475,1.523676 2.14558,0 3.4842,-0.410829 4.31981,-1.164007 -0.0745,0.226675 -0.79239,2.488538 0.50167,1.780471 1.61779,-0.513581 4.1377,-3.130662 5.52095,-5.264358 0.15316,-0.236257 0.23056,-0.519292 0.28261,-0.796002 0.10291,-0.547083 0.19701,-1.131994 0.0512,-1.669254 -0.36252,-1.336255 -1.15338,-2.621251 -2.20826,-3.518045 -0.7219,-0.613712 -2.0092,-1.828918 -2.61937,-1.10403 -0.54791,0.650921 1.1302,1.334572 1.37811,2.14848 0.27127,0.89066 0.9607,2.712054 0.0586,2.792554 -1.21768,0.108662 -1.31048,-0.23902 -1.79636,-0.519546 -4.05733,-3.465156 -8.09111,-7.962304 -13.24402,-9.942641 -0.96673,-0.125976 -2.01597,-0.19156 -2.757,-0.198605 z"
                 style="fill:#000000;fill-opacity:1;fill-rule:nonzero;stroke:none;stroke-width:3.55896;stroke-linecap:round;stroke-linejoin:miter;stroke-miterlimit:4;stroke-dasharray:none;stroke-dashoffset:0;stroke-opacity:1;paint-order:normal"
                 inkscape:connector-curvature="0" />
              <path
                 inkscape:connector-curvature="0"
                 style="fill:#000000;fill-opacity:1;fill-rule:nonzero;stroke:none;stroke-width:3.55896;stroke-linecap:round;stroke-linejoin:miter;stroke-miterlimit:4;stroke-dasharray:none;stroke-dashoffset:0;stroke-opacity:1;paint-order:normal"
                 d="m 183.25479,63.880869 c 0.34772,0.264619 0.15533,-0.05623 0.11916,0.372974 -3.03617,1.451629 -4.23545,3.062696 -5.39742,4.367668 -0.87949,1.433362 -1.06947,2.609641 -1.06947,2.609641 -0.0387,0.591878 -0.93049,0.518108 -0.87147,-0.07209 0,0 0.55361,-2.405713 1.52944,-3.996085 1.29488,-1.369618 3.03064,-2.817638 4.5627,-3.249932 0,0 1.08336,-0.03086 1.12706,-0.03217 z m 11.51022,2.168342 c 0.10585,-0.0012 0.20537,-7.69e-4 0.2975,7.68e-4 1.14136,0.02022 2.46007,0.309858 3.46085,0.968189 0.6714,0.441649 1.26098,1.112628 1.51573,1.874807 0.39099,1.169726 0.37928,2.573818 -0.12848,3.697784 -0.0872,0.193112 -0.25772,0.380726 -0.46216,0.436529 -0.13977,0.03816 -0.31334,-0.0027 -0.42381,-0.09652 -0.0863,-0.07323 -0.0636,-0.221553 -0.1283,-0.314389 -0.61348,-0.879553 -2.01579,-2.349491 -2.37529,-2.169733 0,0 -0.24389,-0.01288 -0.28242,0.397997 l -0.01,-0.0068 c -0.0731,1.320864 -0.25977,2.794887 -0.25977,4.243737 0,1.547819 -0.50985,2.926731 -1.46133,4.102733 1.29109,0.457748 1.69249,0.981894 1.69249,0.981894 0.51359,0.564946 0,0.924296 0,0.924296 -3.03014,-0.359508 -5.62382,0.950115 -5.62382,0.950115 l 0.0214,-0.05998 c -1.75374,0.759477 -3.89064,1.279603 -6.34476,1.523681 -2.14557,0 -3.48419,-0.410834 -4.3198,-1.164012 0.0745,0.226676 0.79239,2.488542 -0.50167,1.780475 -1.61779,-0.513581 -4.13769,-3.130666 -5.52095,-5.264362 -0.15316,-0.236256 -0.23056,-0.519292 -0.28261,-0.795998 -0.10291,-0.547087 -0.19701,-1.131994 -0.0512,-1.669253 0.36253,-1.336256 1.15339,-2.621251 2.20826,-3.518046 0.7219,-0.613712 2.00921,-1.828922 2.61937,-1.104034 0.54791,0.650922 -1.1302,1.334576 -1.3781,2.148484 -0.27128,0.89066 -0.96071,2.71205 -0.0586,2.79255 1.21769,0.108662 1.31048,-0.239016 1.79636,-0.519542 4.05733,-3.465155 8.09111,-7.962304 13.24402,-9.942645 0.96673,-0.125972 2.01597,-0.191556 2.757,-0.198601 z"
                 id="path1170" />
              <path
                 inkscape:connector-curvature="0"
                 id="path1172"
                 d="m 142.54322,109.61115 c 0.61629,-10.887986 0.64197,-10.965023 0.64197,-10.965023 0,0 1.74619,-0.282471 1.92594,-0.308151 0.17975,-0.02567 0.82174,0.796057 0.82174,0.796057 l 0.28247,0.950127 c 0,0 0.1284,0.92446 0.1284,1.07853 0,0.15408 0.0257,1.41236 0.0257,1.41236 l 0.0257,0.89877 c 0,0 -0.0257,0.28247 0.17975,0.38519 0.20544,0.10272 0.38519,0.12839 0.66766,0.20543 0.28248,0.077 1.54076,0.15408 1.72051,0.15408 0.17976,0 0.8731,0 1.46372,0.10271 0.59061,0.10272 1.77186,0 2.28545,0 0.51358,0 3.15855,-0.33383 3.64645,-0.33383 0.4879,0 2.90175,-0.17975 3.44101,-0.15407 0.53927,0.0257 4.36547,0 4.51955,0 0.15407,0 1.54075,0.17975 1.54075,0.17975 h 4.16004 l 3.98028,0.23112 c 0.38518,0 3.54372,0.33383 3.54372,0.33383 0.23112,0 3.26127,0.20543 3.26127,0.20543 0.15407,0.0257 2.20841,0.10272 2.20841,0.10272 0.10271,0.0257 3.95459,0.4879 3.95459,0.4879 0.17976,0.0514 2.25978,0.10272 2.25978,0.10272 h 0.66766 l 0.28247,-0.84741 v -1.72051 c 0,-0.23111 0.0514,-2.00298 0.0514,-2.00298 0.0257,-0.15408 0.17975,-1.874585 0.17975,-1.874585 0.0771,-0.359507 0.25679,-0.641978 0.25679,-0.641978 0.35952,0 1.23261,0.07704 1.23261,0.07704 0.41087,0 1.4894,0.28247 1.4894,0.28247 l -0.0257,1.386673 c 0,0.38519 0.1284,1.00149 0.1284,1.00149 0,0.33383 -0.0257,1.30964 -0.0257,1.30964 0,0.15408 0,0.66766 0,0.66766 0,0.33383 0,0.79606 0,0.79606 -0.0514,0.33383 -0.0514,0.77037 -0.0514,0.77037 0,0.46223 0.077,1.07853 0.077,1.07853 0.077,0.38519 0.17976,0.77038 0.17976,0.77038 0.0514,0.43654 0.1284,1.00149 0.1284,1.00149 0.0257,0.28247 0.0257,1.18124 0.0257,1.18124 0,0.17975 -0.0257,0.71902 -0.0257,0.71902 -0.0257,0.30815 0,0.79606 0,0.79606 0.077,0.4879 0.1284,1.02716 0.1284,1.02716 0.0257,0.30815 0.0514,0.69334 0.0514,0.69334 0,0.17976 -0.12839,0.64198 -0.12839,0.64198 -0.0257,0.41087 -0.0257,0.84742 -0.0257,0.84742 0.0514,0.28247 0.10272,0.74469 0.10272,0.74469 0,0.17976 0,0.35952 0,0.35952 0.0257,0.41086 0.0514,0.71902 0.0514,0.71902 l -0.43654,1.36099 -1.2326,1.05285 -0.89878,0.89877 -1.07853,0.7447 -0.8474,1.38667 -0.66767,1.15558 -0.87309,1.28396 c 0,0 -0.33383,0.6163 -0.33383,0.3595 0,-0.25679 -0.0514,-1.25828 -0.0514,-1.25828 0,0 -0.20543,-0.43654 -0.43654,-0.48791 -0.23112,-0.0514 -1.90027,-0.4879 -1.90027,-0.4879 l -3.31262,-0.64198 c 0,0 -2.95311,-0.35951 -3.08151,-0.41087 -0.12839,-0.0514 -4.51954,-0.7447 -4.72497,-0.77037 -0.20544,-0.0257 -3.82621,-0.43655 -3.82621,-0.43655 l -3.15854,-0.2568 -3.62077,-0.33383 -2.08001,-0.077 -6.26573,0.79606 -3.18422,0.53926 -2.02867,0.43655 -1.12988,0.33383 -0.23112,0.53926 c 0,0 -0.12839,0.28247 -0.10271,0.51358 0.0257,0.23112 0.1284,0.46223 0.20543,0.6163 0.077,0.15408 0.10272,0.56495 0.15408,0.7447 0.0514,0.17976 0.077,0.20543 0.10272,0.33383 0.0257,0.12839 0.0513,0.33383 -0.15408,0.33383 -0.20544,0 -0.66767,-0.23111 -0.66767,-0.23111 0,0 -0.38518,-0.38519 -0.46222,-0.51359 -0.077,-0.1284 -0.20544,-0.30814 -0.33382,-0.46223 -0.1284,-0.15407 -0.56495,-0.74469 -0.59063,-0.8474 -0.0257,-0.10273 -0.38519,-1.12989 -0.38519,-1.12989 l -0.20543,-0.35951 -0.46223,-0.95013 -1.12989,-0.51359 c 0,0 -0.43654,-0.46222 -0.66766,-0.71902 -0.23111,-0.25679 -1.18123,-0.9758 -1.18123,-0.9758 0,0 -0.30816,-0.89878 -0.28248,-1.12989 0.0257,-0.23111 0.0514,-0.95013 0.0514,-1.15556 0,-0.20544 0.15409,-1.33533 0.15409,-1.33533 l -0.10272,-1.74618 0.17976,-0.84742 z"
                 style="fill:#000000;stroke:#000000;stroke-width:0.101684px;stroke-linecap:butt;stroke-linejoin:miter;stroke-opacity:1" />
              <path
                 sodipodi:nodetypes="scccccccccscscscsccscccccccscccccccscccccsccccccccccscccccccccsccccccscccscccccccsccssccccccccscccccccccccccsccscccccccccccccccccccccccccccsccsccccccccsscccccscc"
                 inkscape:connector-curvature="0"
                 id="path1174"
                 d="m 185.62536,121.20882 c -0.36352,-0.10233 -0.78606,-0.49729 -0.93897,-0.50105 -0.1563,-0.004 -0.40801,-0.12927 -0.57488,-0.28647 -0.29439,-0.27731 -0.29734,-0.65115 -0.35552,-2.08635 l -0.0587,-1.44721 0.53186,-0.39708 c 0.59374,-0.44328 1.14498,-0.73545 1.75208,-0.92862 0.22371,-0.0712 0.67781,-0.26508 1.00912,-0.43089 0.58152,-0.29104 0.61409,-0.2959 0.94058,-0.1402 0.36719,0.1751 0.37668,0.21174 0.34557,1.33394 -0.0473,1.70514 -0.60295,5.26371 -1.05527,5.58052 -0.27902,0.19543 -0.76698,-0.46324 -1.5959,-0.69659 z m -4.88085,-1.10633 c -0.99191,-0.16687 -1.84255,-0.38697 -1.92199,-0.46496 -0.12202,-0.11979 -0.0829,-1.09756 0.27224,-2.21315 0.22811,-0.71657 0.44319,-1.51647 0.47796,-1.77755 0.1049,-0.78758 0.21681,-0.79768 1.33214,-0.12018 1.42834,0.86764 1.79892,1.25055 2.05183,2.12014 0.32224,1.10792 0.45562,2.65883 0.38376,2.77511 -0.0981,0.15863 -0.62797,0.0117 -2.59594,-0.31941 z m -30.99474,-0.29891 c -0.1882,-0.1882 -0.20685,-1.52662 -0.0389,-2.79099 1.51315,-1.01359 3.84428,-2.43936 4.10372,-2.29314 0.17977,0.13145 0.1807,0.15829 0.0194,0.56132 -0.19933,0.49817 -0.22039,1.53291 -0.0561,2.75398 0.0839,0.62335 0.0836,0.86026 -0.001,0.91271 -0.063,0.0389 -0.56016,0.17717 -1.10473,0.30716 -0.54457,0.12999 -1.39053,0.34098 -1.87992,0.46888 -0.79079,0.20666 -0.90676,0.21558 -1.04227,0.0801 z m 25.54958,-0.36284 c -0.16778,-0.0433 -1.28581,-0.34089 -2.32759,-0.34751 -1.54436,-0.01 -1.96873,-0.04 -2.07137,-0.1637 -0.10095,-0.12164 -0.0312,-1.00049 0.14427,-1.94197 0.12033,-0.64569 0.19659,-1.2099 0.16946,-1.25379 -0.0271,-0.0439 0.0998,-0.37393 0.28207,-0.73344 0.29201,-0.57598 0.40315,-0.6923 0.93539,-0.97894 0.68379,-0.36826 2.49869,-0.97765 2.76114,-0.92711 0.25287,0.0487 0.64751,2.88173 0.61339,4.40341 -0.0273,1.21671 0.096,2.09849 -0.50676,1.94305 z m -8.61905,-0.931 c -0.69908,-0.0443 -1.42538,-0.10931 -1.61398,-0.14456 -0.33494,-0.0626 -0.34178,-0.33078 -0.29414,-0.74611 0.10439,-0.91005 1.02666,-3.12512 1.67315,-3.30232 1.1434,0.19093 2.01993,0.27767 2.91352,0.0128 0.32321,-0.0524 0.40744,-0.018 0.69421,0.28375 0.28128,0.29599 0.33246,0.43256 0.37041,0.98834 0.0381,0.55767 -0.055,1.49051 -0.24771,2.48191 l -0.1057,0.74186 -1.03368,-0.22035 c -0.59677,-0.008 -1.657,-0.0511 -2.35608,-0.0954 z m -11.93026,0.11414 c -0.13844,-0.26574 -0.35412,-2.22349 -0.2891,-2.62418 0.053,-0.32626 0.86199,-1.51147 1.0833,-1.58699 0.055,-0.0188 0.45918,-0.0195 0.89805,-0.002 l 0.79796,0.0326 0.6243,0.9334 c 0.70663,1.0565 1.39213,2.64486 1.3123,2.85288 -0.0324,0.0845 -0.29783,-0.0389 -0.67766,0.004 -0.3434,0.0388 -1.27387,0.1816 -2.06771,0.31723 -1.73288,0.29605 -1.56867,0.28897 -1.68144,0.0725 z m 6.79467,-0.51392 c -0.86686,-0.12963 -1.58755,0.17173 -1.60153,0.1675 -0.10111,-0.0305 0.0784,-1.34318 0.37598,-2.06488 0.19252,-0.46698 0.39893,-1.03882 0.45868,-1.27077 0.0598,-0.23193 0.17968,-0.44896 0.26651,-0.48227 0.16577,-0.0636 0.69482,0.16493 0.80883,0.34941 0.0367,0.0593 0.30266,0.21379 0.59114,0.34331 0.28847,0.12951 0.71331,0.41306 0.94409,0.63011 0.37704,0.3546 0.43218,0.46971 0.54355,1.1349 0.0682,0.40715 0.0981,0.80754 0.0666,0.88974 -0.0762,0.19861 -0.52265,0.59173 -2.45384,0.30294 z m 22.2691,-3.47941 c -0.27945,-0.1994 -1.04575,-0.68124 -1.70289,-1.07075 -1.1657,-0.69095 -0.9769,-0.71692 -0.9769,-1.06697 0.32685,-0.67472 0.22283,-0.60601 0.56228,-1.61595 0.1903,-0.56616 0.24304,-1.5042 0.38353,-2.08453 0.27539,-1.13756 0.87837,-3.37047 1.08925,-3.58512 0.10462,-0.10649 0.56258,0.14028 2.63706,0.20595 l 2.5838,0.21018 0.0951,0.9856 c -0.31739,2.08698 -0.97401,4.50273 -3.01467,7.08053 -0.29574,0.37358 -0.61565,0.81972 -0.71092,0.99142 -0.0953,0.17171 -0.23269,0.3122 -0.30538,0.3122 -0.0727,0 -0.3608,-0.16316 -0.64026,-0.36256 z m -25.43968,-0.43073 c -1.0448,-0.77586 -1.73047,-0.99264 -2.96668,-1.77235 -0.33579,-0.30388 -0.90048,-2.57457 -1.39539,-5.61105 -0.15546,-0.95384 -0.25635,-2.21369 -0.22419,-2.2975 0.0474,-0.12354 0.57406,-0.18691 2.78339,-0.33493 2.5746,-0.17248 2.6806,-0.53242 2.80125,-0.36742 0.4604,0.62964 0.72888,4.57019 0.45166,6.61527 -0.0948,0.69908 -0.23819,1.55988 -0.31873,1.91289 -0.0805,0.35302 -0.14643,0.8708 -0.14643,1.15064 0,0.90685 -0.20933,1.05658 -0.98488,0.70447 z m -8.13928,-0.13277 c -0.0597,-0.12583 -0.16574,-0.38041 -0.23557,-0.56574 -0.0698,-0.18532 -0.42026,-0.78017 -0.77873,-1.3219 -0.35847,-0.54172 -0.89558,-1.47014 -1.19358,-2.06315 l -0.54182,-1.07821 -0.066,-1.92149 c -0.0363,-1.05681 -0.0906,-2.07647 -0.12052,-2.26591 l -0.0545,-0.6269 0.56623,0.0635 c 0.32555,0.0349 1.39548,0.37299 2.34623,0.40605 0.95075,0.0331 1.78344,0.0771 1.85041,0.0978 0.27861,0.0862 0.94514,3.61858 1.0164,5.38658 l 0.0533,1.3219 -0.30004,0.40674 c -0.63035,0.85449 -2.07662,2.38958 -2.25133,2.38958 -0.1,0 -0.23069,-0.10296 -0.29042,-0.22879 z m 14.75403,0.0569 c -1.5527,-0.25098 -1.95211,-0.0367 -2.60284,-0.0315 -0.37961,0 -1.36522,-0.41703 -1.53351,-0.64886 -0.0454,-0.0626 -0.0555,-0.57135 -0.0224,-1.13062 0.18068,-3.0544 0.27685,-7.29081 0.1693,-7.45782 -0.0587,-0.0911 -0.005,-0.40614 0.16249,-0.58649 l 0.25042,-0.2702 2.20183,0.004 c 1.21101,0.002 2.60012,0.0403 3.08691,0.085 l 0.88506,0.0813 0.18244,0.7557 c 0.14684,0.46356 0.1822,0.92322 0.18119,2.35543 -0.001,1.53751 -0.0331,1.89677 -0.23543,2.64202 -0.1288,0.47439 -0.26804,0.88621 -0.30943,0.91516 -0.0414,0.0289 -0.17321,0.35524 -0.29296,0.7251 -0.29155,0.90049 -0.7336,1.81874 -0.87568,1.81901 -0.0634,1.3e-4 -0.25248,0.20503 -0.42026,0.45535 -0.33764,0.50375 -0.3707,0.51525 -0.82709,0.28771 z m 4.72532,-0.79142 c -0.19928,-0.12364 -0.28527,-0.27741 -0.32542,-0.58198 -0.0937,-0.71077 -0.26001,-1.81194 -0.3696,-2.44763 -0.19107,-1.10822 -0.23398,-2.55039 -0.10611,-3.56626 0.1351,-1.07328 0.36709,-2.35603 0.51536,-2.50456 0.0575,-0.0576 0.65677,-0.0272 1.54545,0.0784 0.79837,0.0948 1.93205,0.21765 2.51928,0.27297 1.51788,0.14301 1.52527,-0.16261 1.52527,0.21619 0,0.17612 -0.043,1.18913 -0.0957,1.52927 -0.0526,0.34014 -0.14789,1.05314 -0.21172,1.58444 -0.21344,1.77649 -0.74146,3.80679 -1.09345,4.20445 -0.32356,0.36554 -2.84727,1.39216 -3.4059,1.38549 -0.12466,-0.002 -0.34852,-0.0783 -0.49749,-0.17074 z m 9.26751,-1.00189 c -1.50003,-0.9176 -2.10759,-1.39004 -2.29652,-1.78574 -0.56678,-1.18711 -1.16309,-4.21646 -0.99812,-5.07063 l 0.094,-0.76917 0.76263,0.004 c 1.25448,0.006 4.70997,0.2601 4.9722,0.36532 0.24053,0.0965 0.24298,0.39381 0.17941,1.36707 -0.0765,1.17117 -0.22206,1.83156 -0.82269,3.73221 -0.24743,0.78298 -0.48757,1.69814 -0.53365,2.03369 -0.10924,0.79553 -0.23929,0.80735 -1.35725,0.12347 z"
                 style="fill:#ffffff;stroke-width:0.384319" />
              <path
                 id="path1176"
                 d="m 145.61294,97.773069 -1.64344,0.590645 -1.15566,0.744561 v 0.61646 c 0,0 -1.28402,13.943795 -0.74476,16.126525 0,0 0.17982,1.32243 1.29688,2.07997 0,0 1.27121,1.15555 2.14431,1.4637 0,0 1.25813,3.10712 2.72184,4.57084 0,0 1.28397,0.43656 1.02718,-0.95011 0,0 -1.05286,-2.05428 0,-2.33676 0,0 7.3661,-1.67133 11.11916,-1.84899 4.26848,-0.20207 8.54025,0.43458 12.78822,0.89887 4.13783,0.45226 6.48399,0.87311 12.35169,1.83609 l 1.81046,0.71893 c 0,0 -0.91159,1.24543 0.0771,1.68197 l 0.64188,0.0514 c 0,0 1.81455,-3.05086 2.70914,-4.58374 1.19257,-2.0435 3.9419,-0.64194 3.54386,-6.15014 l -0.6677,-13.584413 -0.15411,-1.283965 h -3.441 l -0.12849,0.590645 c 0,0 -0.33369,1.669153 -0.23097,6.085973 0,0 -15.58339,-1.30817 -23.3938,-1.61781 -2.51472,-0.0997 -5.03299,-0.0831 -7.54968,-0.0771 -3.98927,0.01 -5.5468,1.2071 -11.9666,0.17993 0,0 0.30825,-2.10571 -0.38509,-4.622275 z m -0.31002,0.922709 0.36245,0.556087 c 0.61368,2.310235 0.34756,4.214145 0.34756,4.214145 a 0.76359586,0.76359586 0 0 0 0.63433,0.86392 c 3.26511,0.52242 5.35524,0.48155 7.0935,0.30466 1.73824,-0.17689 3.07752,-0.46964 4.99604,-0.47426 2.51892,-0.006 5.02639,-0.0231 7.51751,0.0757 7.76548,0.30787 23.36023,1.61703 23.36023,1.61703 a 0.76359586,0.76359586 0 0 0 0.82717,-0.77932 c -0.10085,-4.33661 0.20856,-5.86911 0.2139,-5.895321 h 2.1461 l 0.0705,0.58548 0.66572,13.557011 a 0.76359586,0.76359586 0 0 0 0.001,0.0173 c 0.0951,1.31636 -0.006,2.16698 -0.18153,2.70517 -0.17569,0.53818 -0.39479,0.77999 -0.69213,1.00434 -0.29733,0.22434 -0.70465,0.40301 -1.17692,0.67564 -0.47227,0.27264 -1.00935,0.67089 -1.39101,1.32488 -0.66969,1.14753 -1.48463,2.51713 -2.03488,3.44377 a 0.76359586,0.76359586 0 0 0 -0.45203,-0.91716 l -1.81045,-0.71913 a 0.76359586,0.76359586 0 0 0 -0.1575,-0.0443 c -5.86471,-0.96248 -8.2345,-1.38682 -12.3922,-1.84124 -4.22795,-0.46211 -8.53935,-1.10984 -12.90758,-0.90304 -3.93192,0.18613 -11.25203,1.86745 -11.25203,1.86745 a 0.76359586,0.76359586 0 0 0 -0.0292,0.008 c -0.51767,0.1389 -0.90311,0.63974 -0.99301,1.06292 -0.0899,0.42319 -0.0261,0.79252 0.054,1.12668 0.1142,0.47625 0.23022,0.67418 0.3265,0.87821 -0.52131,-0.63314 -1.05104,-1.46276 -1.44881,-2.2301 -0.48052,-0.92696 -0.78209,-1.67164 -0.78209,-1.67164 a 0.76359586,0.76359586 0 0 0 -0.4534,-0.43314 c -0.26372,-0.0931 -0.78896,-0.4265 -1.18885,-0.73326 -0.39988,-0.30674 -0.6959,-0.57574 -0.6959,-0.57574 a 0.76359586,0.76359586 0 0 0 -0.0848,-0.0667 c -0.80697,-0.54725 -0.96898,-1.55089 -0.96898,-1.55089 a 0.76359586,0.76359586 0 0 0 -0.0159,-0.0802 c -0.0725,-0.29344 -0.13263,-1.64036 -0.0886,-3.23683 0.044,-1.59646 0.15284,-3.53692 0.27923,-5.41053 0.25278,-3.74721 0.57356,-7.226153 0.57356,-7.226153 a 0.76359586,0.76359586 0 0 0 0.003,-0.06991 v -0.199596 l 0.73184,-0.472079 z"
                 style="fill:#000000;stroke:none;stroke-width:0.101684px;stroke-linecap:butt;stroke-linejoin:miter;stroke-opacity:1"
                 inkscape:connector-curvature="0" />
              <circle
                 style="opacity:1;fill:#ff0000;stroke:none;stroke-width:10.4631;stroke-linecap:round;stroke-miterlimit:4;stroke-dasharray:none"
                 id="circle1178"
                 cx="149.42986"
                 cy="76.439087"
                 r="3.8754082" />
              <circle
                 style="opacity:1;fill:#ff0000;stroke:none;stroke-width:10.4631;stroke-linecap:round;stroke-miterlimit:4;stroke-dasharray:none"
                 id="circle1180"
                 cx="186.90776"
                 cy="76.439087"
                 r="3.8754082" />
            </g>
          </g>
        </g>
      </g>
    </g>
    <path
       inkscape:connector-curvature="0"
       id="path1871"
       d="m 256.23726,181.40727 a 4.4369118,8.8971056 47.673574 0 0 -2.65976,2.06486 4.4369118,8.8971056 47.673574 0 0 -3.23082,9.1637 4.4369118,8.8971056 47.673574 0 0 5.89058,-0.34489 8.8971056,4.4369118 42.326426 0 0 5.89059,0.34489 8.8971056,4.4369118 42.326426 0 0 -3.23084,-9.1637 8.8971056,4.4369118 42.326426 0 0 -2.65975,-2.06486 z"
       style="fill:#000000;fill-opacity:1;fill-rule:nonzero;stroke:none;stroke-width:3.55896;stroke-linecap:round;stroke-linejoin:miter;stroke-miterlimit:4;stroke-dasharray:none;stroke-dashoffset:0;stroke-opacity:1;paint-order:normal" />
    <g
       id="g1531"
       transform="translate(-135.31548,29.293154)">
      <path
         inkscape:connector-curvature="0"
         id="path1889"
         d="m 142.54322,112.55111 c 0.61629,-10.88798 0.64197,-10.96502 0.64197,-10.96502 0,0 1.74619,-0.28247 1.92594,-0.30815 0.17975,-0.0257 0.82174,0.79606 0.82174,0.79606 l 0.28247,0.95012 c 0,0 0.1284,0.92446 0.1284,1.07853 0,0.15408 0.0257,1.41236 0.0257,1.41236 l 0.0257,0.89877 c 0,0 -0.0257,0.28247 0.17975,0.38519 0.20544,0.10272 0.38519,0.12839 0.66766,0.20543 0.28248,0.077 1.54076,0.15408 1.72051,0.15408 0.17976,0 0.8731,0 1.46372,0.10271 0.59061,0.10272 1.77186,0 2.28545,0 0.51358,0 3.15855,-0.33383 3.64645,-0.33383 0.4879,0 2.90175,-0.17975 3.44101,-0.15407 0.53927,0.0257 4.36547,0 4.51955,0 0.15407,0 1.54075,0.17975 1.54075,0.17975 h 4.16004 l 3.98028,0.23112 c 0.38518,0 3.54372,0.33383 3.54372,0.33383 0.23112,0 3.26127,0.20543 3.26127,0.20543 0.15407,0.0257 2.20841,0.10272 2.20841,0.10272 0.10271,0.0257 3.95459,0.4879 3.95459,0.4879 0.17976,0.0514 2.25978,0.10272 2.25978,0.10272 h 0.66766 l 0.28247,-0.84741 v -1.72051 c 0,-0.23111 0.0514,-2.00298 0.0514,-2.00298 0.0257,-0.15408 0.17975,-1.87458 0.17975,-1.87458 0.0771,-0.35951 0.25679,-0.64198 0.25679,-0.64198 0.35952,0 1.23261,0.077 1.23261,0.077 0.41087,0 1.4894,0.28247 1.4894,0.28247 l -0.0257,1.38667 c 0,0.38519 0.1284,1.00149 0.1284,1.00149 0,0.33383 -0.0257,1.30964 -0.0257,1.30964 0,0.15408 0,0.66766 0,0.66766 0,0.33383 0,0.79606 0,0.79606 -0.0514,0.33383 -0.0514,0.77037 -0.0514,0.77037 0,0.46223 0.077,1.07853 0.077,1.07853 0.077,0.38519 0.17976,0.77038 0.17976,0.77038 0.0514,0.43654 0.1284,1.00149 0.1284,1.00149 0.0257,0.28247 0.0257,1.18124 0.0257,1.18124 0,0.17975 -0.0257,0.71902 -0.0257,0.71902 -0.0257,0.30815 0,0.79606 0,0.79606 0.077,0.4879 0.1284,1.02716 0.1284,1.02716 0.0257,0.30815 0.0514,0.69334 0.0514,0.69334 0,0.17976 -0.12839,0.64198 -0.12839,0.64198 -0.0257,0.41087 -0.0257,0.84742 -0.0257,0.84742 0.0514,0.28247 0.10272,0.74469 0.10272,0.74469 0,0.17976 0,0.35952 0,0.35952 0.0257,0.41086 0.0514,0.71902 0.0514,0.71902 l -0.43654,1.36099 -1.2326,1.05285 -0.89878,0.89877 -1.07853,0.7447 -0.8474,1.38667 -0.66767,1.15558 -0.87309,1.28396 c 0,0 -0.33383,0.6163 -0.33383,0.3595 0,-0.25679 -0.0514,-1.25828 -0.0514,-1.25828 0,0 -0.20543,-0.43654 -0.43654,-0.48791 -0.23112,-0.0514 -1.90027,-0.4879 -1.90027,-0.4879 l -3.31262,-0.64198 c 0,0 -2.95311,-0.35951 -3.08151,-0.41087 -0.12839,-0.0514 -4.51954,-0.7447 -4.72497,-0.77037 -0.20544,-0.0257 -3.82621,-0.43655 -3.82621,-0.43655 l -3.15854,-0.2568 -3.62077,-0.33383 -2.08001,-0.077 -6.26573,0.79606 -3.18422,0.53926 -2.02867,0.43655 -1.12988,0.33383 -0.23112,0.53926 c 0,0 -0.12839,0.28247 -0.10271,0.51358 0.0257,0.23112 0.1284,0.46223 0.20543,0.6163 0.077,0.15408 0.10272,0.56495 0.15408,0.7447 0.0514,0.17976 0.077,0.20543 0.10272,0.33383 0.0257,0.12839 0.0513,0.33383 -0.15408,0.33383 -0.20544,0 -0.66767,-0.23111 -0.66767,-0.23111 0,0 -0.38518,-0.38519 -0.46222,-0.51359 -0.077,-0.1284 -0.20544,-0.30814 -0.33382,-0.46223 -0.1284,-0.15407 -0.56495,-0.74469 -0.59063,-0.8474 -0.0257,-0.10273 -0.38519,-1.12989 -0.38519,-1.12989 l -0.20543,-0.35951 -0.46223,-0.95013 -1.12989,-0.51359 c 0,0 -0.43654,-0.46222 -0.66766,-0.71902 -0.23111,-0.25679 -1.18123,-0.9758 -1.18123,-0.9758 0,0 -0.30816,-0.89878 -0.28248,-1.12989 0.0257,-0.23111 0.0514,-0.95013 0.0514,-1.15556 0,-0.20544 0.15409,-1.33533 0.15409,-1.33533 l -0.10272,-1.74618 0.17976,-0.84742 z"
         style="fill:#000000;stroke:#000000;stroke-width:0.101684px;stroke-linecap:butt;stroke-linejoin:miter;stroke-opacity:1" />
      <path
         sodipodi:nodetypes="scccccccccscscscsccscccccccscccccccscccccsccccccccccscccccccccsccccccscccscccccccsccssccccccccscccccccccccccsccscccccccccccccccccccccccccccsccsccccccccsscccccscc"
         inkscape:connector-curvature="0"
         id="path1891"
         d="m 185.62536,124.14878 c -0.36352,-0.10233 -0.78606,-0.49729 -0.93897,-0.50105 -0.1563,-0.004 -0.40801,-0.12927 -0.57488,-0.28647 -0.29439,-0.27731 -0.29734,-0.65115 -0.35552,-2.08635 l -0.0587,-1.44721 0.53186,-0.39708 c 0.59374,-0.44328 1.14498,-0.73545 1.75208,-0.92862 0.22371,-0.0712 0.67781,-0.26508 1.00912,-0.43089 0.58152,-0.29104 0.61409,-0.2959 0.94058,-0.1402 0.36719,0.1751 0.37668,0.21174 0.34557,1.33394 -0.0473,1.70514 -0.60295,5.26371 -1.05527,5.58052 -0.27902,0.19543 -0.76698,-0.46324 -1.5959,-0.69659 z m -4.88085,-1.10633 c -0.99191,-0.16687 -1.84255,-0.38697 -1.92199,-0.46496 -0.12202,-0.11979 -0.0829,-1.09756 0.27224,-2.21315 0.22811,-0.71657 0.44319,-1.51647 0.47796,-1.77755 0.1049,-0.78758 0.21681,-0.79768 1.33214,-0.12018 1.42834,0.86764 1.79892,1.25055 2.05183,2.12014 0.32224,1.10792 0.45562,2.65883 0.38376,2.77511 -0.0981,0.15863 -0.62797,0.0117 -2.59594,-0.31941 z m -30.99474,-0.29891 c -0.1882,-0.1882 -0.20685,-1.52662 -0.0389,-2.79099 1.51315,-1.01359 3.84428,-2.43936 4.10372,-2.29314 0.17977,0.13145 0.1807,0.15829 0.0194,0.56132 -0.19933,0.49817 -0.22039,1.53291 -0.0561,2.75398 0.0839,0.62335 0.0836,0.86026 -0.001,0.91271 -0.063,0.0389 -0.56016,0.17717 -1.10473,0.30716 -0.54457,0.12999 -1.39053,0.34098 -1.87992,0.46888 -0.79079,0.20666 -0.90676,0.21558 -1.04227,0.0801 z m 25.54958,-0.36284 c -0.16778,-0.0433 -1.28581,-0.34089 -2.32759,-0.34751 -1.54436,-0.01 -1.96873,-0.04 -2.07137,-0.1637 -0.10095,-0.12164 -0.0312,-1.00049 0.14427,-1.94197 0.12033,-0.64569 0.19659,-1.2099 0.16946,-1.25379 -0.0271,-0.0439 0.0998,-0.37393 0.28207,-0.73344 0.29201,-0.57598 0.40315,-0.6923 0.93539,-0.97894 0.68379,-0.36826 2.49869,-0.97765 2.76114,-0.92711 0.25287,0.0487 0.64751,2.88173 0.61339,4.40341 -0.0273,1.21671 0.096,2.09849 -0.50676,1.94305 z m -8.61905,-0.931 c -0.69908,-0.0443 -1.42538,-0.10931 -1.61398,-0.14456 -0.33494,-0.0626 -0.34178,-0.33078 -0.29414,-0.74611 0.10439,-0.91005 1.02666,-3.12512 1.67315,-3.30232 1.1434,0.19093 2.01993,0.27767 2.91352,0.0128 0.32321,-0.0524 0.40744,-0.018 0.69421,0.28375 0.28128,0.29599 0.33246,0.43256 0.37041,0.98834 0.0381,0.55767 -0.055,1.49051 -0.24771,2.48191 l -0.1057,0.74186 -1.03368,-0.22035 c -0.59677,-0.008 -1.657,-0.0511 -2.35608,-0.0954 z m -11.93026,0.11414 c -0.13844,-0.26574 -0.35412,-2.22349 -0.2891,-2.62418 0.053,-0.32626 0.86199,-1.51147 1.0833,-1.58699 0.055,-0.0188 0.45918,-0.0195 0.89805,-0.002 l 0.79796,0.0326 0.6243,0.9334 c 0.70663,1.0565 1.39213,2.64486 1.3123,2.85288 -0.0324,0.0845 -0.29783,-0.0389 -0.67766,0.004 -0.3434,0.0388 -1.27387,0.1816 -2.06771,0.31723 -1.73288,0.29605 -1.56867,0.28897 -1.68144,0.0725 z m 6.79467,-0.51392 c -0.86686,-0.12963 -1.58755,0.17173 -1.60153,0.1675 -0.10111,-0.0305 0.0784,-1.34318 0.37598,-2.06488 0.19252,-0.46698 0.39893,-1.03882 0.45868,-1.27077 0.0598,-0.23193 0.17968,-0.44896 0.26651,-0.48227 0.16577,-0.0636 0.69482,0.16493 0.80883,0.34941 0.0367,0.0593 0.30266,0.21379 0.59114,0.34331 0.28847,0.12951 0.71331,0.41306 0.94409,0.63011 0.37704,0.3546 0.43218,0.46971 0.54355,1.1349 0.0682,0.40715 0.0981,0.80754 0.0666,0.88974 -0.0762,0.19861 -0.52265,0.59173 -2.45384,0.30294 z m 22.2691,-3.47941 c -0.27945,-0.1994 -1.04575,-0.68124 -1.70289,-1.07075 -1.1657,-0.69095 -0.9769,-0.71692 -0.9769,-1.06697 0.32685,-0.67472 0.22283,-0.60601 0.56228,-1.61595 0.1903,-0.56616 0.24304,-1.5042 0.38353,-2.08453 0.27539,-1.13756 0.87837,-3.37047 1.08925,-3.58512 0.10462,-0.10649 0.56258,0.14028 2.63706,0.20595 l 2.5838,0.21018 0.0951,0.9856 c -0.31739,2.08698 -0.97401,4.50273 -3.01467,7.08053 -0.29574,0.37358 -0.61565,0.81972 -0.71092,0.99142 -0.0953,0.17171 -0.23269,0.3122 -0.30538,0.3122 -0.0727,0 -0.3608,-0.16316 -0.64026,-0.36256 z m -25.43968,-0.43073 c -1.0448,-0.77586 -1.73047,-0.99264 -2.96668,-1.77235 -0.33579,-0.30388 -0.90048,-2.57457 -1.39539,-5.61105 -0.15546,-0.95384 -0.25635,-2.21369 -0.22419,-2.2975 0.0474,-0.12354 0.57406,-0.18691 2.78339,-0.33493 2.5746,-0.17248 2.6806,-0.53242 2.80125,-0.36742 0.4604,0.62964 0.72888,4.57019 0.45166,6.61527 -0.0948,0.69908 -0.23819,1.55988 -0.31873,1.91289 -0.0805,0.35302 -0.14643,0.8708 -0.14643,1.15064 0,0.90685 -0.20933,1.05658 -0.98488,0.70447 z m -8.13928,-0.13277 c -0.0597,-0.12583 -0.16574,-0.38041 -0.23557,-0.56574 -0.0698,-0.18532 -0.42026,-0.78017 -0.77873,-1.3219 -0.35847,-0.54172 -0.89558,-1.47014 -1.19358,-2.06315 l -0.54182,-1.07821 -0.066,-1.92149 c -0.0363,-1.05681 -0.0906,-2.07647 -0.12052,-2.26591 l -0.0545,-0.6269 0.56623,0.0635 c 0.32555,0.0349 1.39548,0.37299 2.34623,0.40605 0.95075,0.0331 1.78344,0.0771 1.85041,0.0978 0.27861,0.0862 0.94514,3.61858 1.0164,5.38658 l 0.0533,1.3219 -0.30004,0.40674 c -0.63035,0.85449 -2.07662,2.38958 -2.25133,2.38958 -0.1,0 -0.23069,-0.10296 -0.29042,-0.22879 z m 14.75403,0.0569 c -1.5527,-0.25098 -1.95211,-0.0367 -2.60284,-0.0315 -0.37961,0 -1.36522,-0.41703 -1.53351,-0.64886 -0.0454,-0.0626 -0.0555,-0.57135 -0.0224,-1.13062 0.18068,-3.0544 0.27685,-7.29081 0.1693,-7.45782 -0.0587,-0.0911 -0.005,-0.40614 0.16249,-0.58649 l 0.25042,-0.2702 2.20183,0.004 c 1.21101,0.002 2.60012,0.0403 3.08691,0.085 l 0.88506,0.0813 0.18244,0.7557 c 0.14684,0.46356 0.1822,0.92322 0.18119,2.35543 -0.001,1.53751 -0.0331,1.89677 -0.23543,2.64202 -0.1288,0.47439 -0.26804,0.88621 -0.30943,0.91516 -0.0414,0.0289 -0.17321,0.35524 -0.29296,0.7251 -0.29155,0.90049 -0.7336,1.81874 -0.87568,1.81901 -0.0634,1.3e-4 -0.25248,0.20503 -0.42026,0.45535 -0.33764,0.50375 -0.3707,0.51525 -0.82709,0.28771 z m 4.72532,-0.79142 c -0.19928,-0.12364 -0.28527,-0.27741 -0.32542,-0.58198 -0.0937,-0.71077 -0.26001,-1.81194 -0.3696,-2.44763 -0.19107,-1.10822 -0.23398,-2.55039 -0.10611,-3.56626 0.1351,-1.07328 0.36709,-2.35603 0.51536,-2.50456 0.0575,-0.0576 0.65677,-0.0272 1.54545,0.0784 0.79837,0.0948 1.93205,0.21765 2.51928,0.27297 1.51788,0.14301 1.52527,-0.16261 1.52527,0.21619 0,0.17612 -0.043,1.18913 -0.0957,1.52927 -0.0526,0.34014 -0.14789,1.05314 -0.21172,1.58444 -0.21344,1.77649 -0.74146,3.80679 -1.09345,4.20445 -0.32356,0.36554 -2.84727,1.39216 -3.4059,1.38549 -0.12466,-0.002 -0.34852,-0.0783 -0.49749,-0.17074 z m 9.26751,-1.00189 c -1.50003,-0.9176 -2.10759,-1.39004 -2.29652,-1.78574 -0.56678,-1.18711 -1.16309,-4.21646 -0.99812,-5.07063 l 0.094,-0.76917 0.76263,0.004 c 1.25448,0.006 4.70997,0.2601 4.9722,0.36532 0.24053,0.0965 0.24298,0.39381 0.17941,1.36707 -0.0765,1.17117 -0.22206,1.83156 -0.82269,3.73221 -0.24743,0.78298 -0.48757,1.69814 -0.53365,2.03369 -0.10924,0.79553 -0.23929,0.80735 -1.35725,0.12347 z"
         style="fill:#ffffff;stroke-width:0.384319" />
    </g>
    <g
       id="g1534"
       transform="translate(-31.75,58.397321)">
      <path
         id="path1893"
         d="m 145.61294,100.71303 -1.64344,0.59065 -1.15566,0.74456 v 0.61646 c 0,0 -1.28402,13.94379 -0.74476,16.12652 0,0 0.17982,1.32243 1.29688,2.07997 0,0 1.27121,1.15555 2.14431,1.4637 0,0 1.25813,3.10712 2.72184,4.57084 0,0 1.28397,0.43656 1.02718,-0.95011 0,0 -1.05286,-2.05428 0,-2.33676 0,0 7.3661,-1.67133 11.11916,-1.84899 4.26848,-0.20207 8.54025,0.43458 12.78822,0.89887 4.13783,0.45226 6.48399,0.87311 12.35169,1.83609 l 1.81046,0.71893 c 0,0 -0.91159,1.24543 0.0771,1.68197 l 0.64188,0.0514 c 0,0 1.81455,-3.05086 2.70914,-4.58374 1.19257,-2.0435 3.9419,-0.64194 3.54386,-6.15014 l -0.6677,-13.58441 -0.15411,-1.28396 h -3.441 l -0.12849,0.59064 c 0,0 -0.33369,1.66915 -0.23097,6.08597 0,0 -15.58339,-1.30817 -23.3938,-1.61781 -2.51472,-0.0997 -5.03299,-0.0831 -7.54968,-0.0771 -3.98927,0.01 -5.5468,1.2071 -11.9666,0.17993 0,0 0.30825,-2.10571 -0.38509,-4.62227 z m -0.31002,0.92271 0.36245,0.55609 c 0.61368,2.31023 0.34756,4.21414 0.34756,4.21414 a 0.76359586,0.76359586 0 0 0 0.63433,0.86392 c 3.26511,0.52242 5.35524,0.48155 7.0935,0.30466 1.73824,-0.17689 3.07752,-0.46964 4.99604,-0.47426 2.51892,-0.006 5.02639,-0.0231 7.51751,0.0757 7.76548,0.30787 23.36023,1.61703 23.36023,1.61703 a 0.76359586,0.76359586 0 0 0 0.82717,-0.77932 c -0.10085,-4.33661 0.20856,-5.86911 0.2139,-5.89532 h 2.1461 l 0.0705,0.58548 0.66572,13.55701 a 0.76359586,0.76359586 0 0 0 0.001,0.0173 c 0.0951,1.31636 -0.006,2.16698 -0.18153,2.70517 -0.17569,0.53818 -0.39479,0.77999 -0.69213,1.00434 -0.29733,0.22434 -0.70465,0.40301 -1.17692,0.67564 -0.47227,0.27264 -1.00935,0.67089 -1.39101,1.32488 -0.66969,1.14753 -1.48463,2.51713 -2.03488,3.44377 a 0.76359586,0.76359586 0 0 0 -0.45203,-0.91716 l -1.81045,-0.71913 a 0.76359586,0.76359586 0 0 0 -0.1575,-0.0443 c -5.86471,-0.96248 -8.2345,-1.38682 -12.3922,-1.84124 -4.22795,-0.46211 -8.53935,-1.10984 -12.90758,-0.90304 -3.93192,0.18613 -11.25203,1.86745 -11.25203,1.86745 a 0.76359586,0.76359586 0 0 0 -0.0292,0.008 c -0.51767,0.1389 -0.90311,0.63974 -0.99301,1.06292 -0.0899,0.42319 -0.0261,0.79252 0.054,1.12668 0.1142,0.47625 0.23022,0.67418 0.3265,0.87821 -0.52131,-0.63314 -1.05104,-1.46276 -1.44881,-2.2301 -0.48052,-0.92696 -0.78209,-1.67164 -0.78209,-1.67164 a 0.76359586,0.76359586 0 0 0 -0.4534,-0.43314 c -0.26372,-0.0931 -0.78896,-0.4265 -1.18885,-0.73326 -0.39988,-0.30674 -0.6959,-0.57574 -0.6959,-0.57574 a 0.76359586,0.76359586 0 0 0 -0.0848,-0.0667 c -0.80697,-0.54725 -0.96898,-1.55089 -0.96898,-1.55089 a 0.76359586,0.76359586 0 0 0 -0.0159,-0.0802 c -0.0725,-0.29344 -0.13263,-1.64036 -0.0886,-3.23683 0.044,-1.59646 0.15284,-3.53692 0.27923,-5.41053 0.25278,-3.74721 0.57356,-7.22615 0.57356,-7.22615 a 0.76359586,0.76359586 0 0 0 0.003,-0.0699 v -0.19959 l 0.73184,-0.47208 z"
         style="fill:#000000;stroke:none;stroke-width:0.101684px;stroke-linecap:butt;stroke-linejoin:miter;stroke-opacity:1"
         inkscape:connector-curvature="0" />
    </g>
    <path
       style="fill:#000000;stroke:#000000;stroke-width:0.264583px;stroke-linecap:butt;stroke-linejoin:miter;stroke-opacity:1"
       d="m 212.66854,185.30132 1.56166,-16.42426 c 0,0 -5.54272,9.78675 -6.3189,13.76252 -0.77618,3.97578 4.75724,2.66174 4.75724,2.66174 z"
       id="path1519"
       sodipodi:nodetypes="cczc" />
    <path
       transform="matrix(0.38431947,0,0,0.38431947,549.96972,-38.453781)"
       inkscape:href="#path1877"
       id="path1978"
       style="fill:#ff0000;fill-opacity:1;fill-rule:nonzero;stroke:#ffffff;stroke-width:9.26042;stroke-linecap:round;stroke-linejoin:round;stroke-miterlimit:4;stroke-dasharray:none;stroke-dashoffset:0;stroke-opacity:1;paint-order:markers fill stroke"
       xlink:href="#path1877"
       inkscape:original="M -996.31836 134.60742 C -1043.2884 134.30137 -1086.4274 157.35779 -1095.3574 187.48438 C -1100.9001 217.16806 -1101.3944 219.50517 -1103.8418 236.37695 C -1098.9892 258.07356 -1096.5197 263.07546 -1090.459 273.65625 C -1085.6911 281.98021 -1101.1217 284.07392 -1091.6465 307.69922 C -1084.5354 316.54763 -1077.5465 319.89352 -1057.625 317.99023 L -994.08008 134.63867 C -994.82745 134.62197 -995.57282 134.61222 -996.31836 134.60742 z M -990.57422 134.60742 C -991.31979 134.61242 -992.06708 134.62197 -992.81445 134.63867 L -929.26953 317.99023 C -909.34794 319.89352 -902.35709 316.54763 -895.24609 307.69922 C -885.77083 284.07392 -901.20353 281.98021 -896.43555 273.65625 C -890.37485 263.07546 -887.90342 258.07356 -883.05078 236.37695 C -885.49815 219.50517 -885.99237 217.16806 -891.53516 187.48438 C -900.46513 157.35779 -943.60417 134.30137 -990.57422 134.60742 z M -1072.0703 323.47266 C -1072.0703 323.47266 -1071.2306 334.65117 -1074.4004 346.29688 C -1077.6965 358.40729 -1085.7346 366.89399 -1084.2227 377.38281 C -1082.7108 387.87166 -1074.3648 389.11887 -1062.0195 395.19727 C -1042.6817 406.85085 -1040.0113 406.95013 -1029.7988 410.74219 C -1008.3224 414.51793 -1000.0678 414.53967 -994.75977 414.57422 L -994.79883 414.61719 C -994.36412 414.60189 -993.91162 414.59379 -993.44727 414.58789 C -992.98311 414.59389 -992.53025 414.60209 -992.0957 414.61719 L -992.13281 414.57422 C -986.82482 414.53962 -978.57217 414.51789 -957.0957 410.74219 C -946.88326 406.95013 -944.21089 406.85085 -924.87305 395.19727 C -912.52777 389.11887 -904.18378 387.87166 -902.67188 377.38281 C -901.15999 366.89399 -909.19793 358.40729 -912.49414 346.29688 C -915.66385 334.65116 -914.82422 323.47266 -914.82422 323.47266 L -993.44727 413.07617 L -1072.0703 323.47266 z "
       inkscape:radius="8.6020803"
       sodipodi:type="inkscape:offset"
       d="m -996.26367,126.00586 c -24.90893,-0.16198 -48.71593,5.79932 -67.89253,16.04102 -19.1772,10.24196 -34.0816,24.88356 -39.4493,42.99218 a 8.6029406,8.6029406 0 0 0 -0.207,0.86719 c -5.5407,29.67305 -6.0881,32.31339 -8.543,49.23633 a 8.6029406,8.6029406 0 0 0 0.1192,3.11133 c 4.7747,21.34865 8.0202,28.55571 13.8027,38.73632 -0.3225,0.61581 -1.0394,1.83335 -2.1992,4.35547 -2.72,5.91475 -4.3689,16.16321 1.0019,29.55469 a 8.6029406,8.6029406 0 0 0 1.2793,2.1875 c 4.0859,5.08412 9.2774,9.65015 16.1973,11.95117 0.4819,0.16023 1.012,0.23467 1.5039,0.375 0.082,1.76449 0.3706,9.72709 -2.0508,18.62305 -1.3164,4.83679 -3.8195,9.47918 -6.2539,14.87305 -2.4344,5.39386 -4.891,11.99989 -3.7812,19.69922 1.0679,7.40903 5.9009,13.45115 11,16.63281 5.0497,3.15084 10.1331,4.84505 15.7597,7.59961 19.1251,11.49056 23.4811,12.36212 33.1836,15.96484 a 8.6029406,8.6029406 0 0 0 1.5039,0.4082 c 20.6561,3.63152 29.7381,3.85217 35.16801,3.90039 a 8.6029406,8.6029406 0 0 0 1.625,0.0996 c 0.30034,-0.0106 0.66226,-0.0181 1.04882,-0.0234 0.38623,0.005 0.74953,0.0129 1.05274,0.0234 a 8.6029406,8.6029406 0 0 0 1.62891,-0.0996 c 5.43034,-0.0484 14.50964,-0.26989 35.16015,-3.90039 a 8.6029406,8.6029406 0 0 0 1.50391,-0.4082 c 9.70217,-3.60259 14.06019,-4.47415 33.18554,-15.96484 5.62682,-2.75464 10.71045,-4.44859 15.75977,-7.59961 5.09872,-3.18185 9.93016,-9.22432 10.99805,-16.63281 1.10979,-7.69928 -1.34685,-14.30534 -3.78125,-19.69922 -2.43441,-5.39388 -4.93742,-10.0362 -6.25391,-14.87305 -2.4213,-8.89602 -2.13312,-16.85855 -2.05078,-18.62305 0.49192,-0.14032 1.02202,-0.21477 1.50391,-0.375 6.9202,-2.30091 12.11312,-6.86673 16.19921,-11.95117 a 8.6029406,8.6029406 0 0 0 1.2793,-2.1875 c 5.37092,-13.39168 3.72263,-23.63992 1.00195,-29.55469 -1.16016,-2.5222 -1.87857,-3.73971 -2.20117,-4.35547 5.78228,-10.18005 9.02975,-17.38714 13.80469,-38.73632 a 8.6029406,8.6029406 0 0 0 0.11914,-3.11133 c -2.45479,-16.92291 -3.00216,-19.56326 -8.54297,-49.23633 a 8.6029406,8.6029406 0 0 0 -0.20703,-0.86719 c -5.36767,-18.10863 -20.2721,-32.75022 -39.44922,-42.99218 -19.17712,-10.24197 -42.98492,-16.20333 -67.89453,-16.04102 a 8.6029406,8.6029406 0 0 0 -0.002,0 c -0.78048,0.005 -1.57087,0.0153 -2.37305,0.0332 a 8.6029406,8.6029406 0 0 0 -0.43555,0.0215 8.6029406,8.6029406 0 0 0 -0.44726,-0.0215 c -0.79966,-0.0179 -1.59006,-0.0282 -2.37305,-0.0332 z m 2.8164,33.07226 56.05079,161.72852 a 8.6029406,8.6029406 0 0 0 7.30859,5.74609 c 0.37302,0.0356 0.68624,0.0397 1.05273,0.0723 l -64.41211,73.4082 -64.41213,-73.4082 c 0.3665,-0.0325 0.6797,-0.0366 1.0528,-0.0723 a 8.6029406,8.6029406 0 0 0 7.3086,-5.74609 z" />
    <path
       style="fill:#b3b3b3;stroke:#000000;stroke-width:0.101684px;stroke-linecap:butt;stroke-linejoin:miter;stroke-opacity:1"
       d="m 125.74652,50.079289 2.87608,-13.558624 2.46521,-7.395618 5.5467,-5.957578 c 0,0 8.21736,-5.135847 9.03909,-5.546716 0.82173,-0.410868 14.5858,-3.90324 15.40753,-4.108674 0.82173,-0.205435 14.99667,0 14.99667,0 l 11.91516,3.081508 9.65538,5.135841 c 0,0 5.95758,4.930414 6.77932,5.341282 0.82173,0.410868 3.28694,7.395617 3.28694,7.395617 l 1.64347,8.011915 0.6163,7.190179 0.61629,4.930412 -1.23259,3.492376 -1.84891,4.108675 -2.05434,4.519539 -0.20543,1.438039 0.41087,3.286938 0.82173,3.081509 c 0,0 0.20543,1.027166 0.20543,2.054337 0,1.027167 0.41087,1.848903 -0.82173,2.67064 -1.2326,0.821733 -1.8489,1.438035 -1.8489,1.438035 0,0 -0.61631,0.821736 -1.43804,1.232601 -0.82173,0.410868 -2.87607,1.848903 -2.87607,1.848903 0,0 -1.02717,1.027173 -1.02717,2.054333 0,1.02717 -0.20544,2.05434 -0.20544,2.87607 0,0.82174 -0.20543,1.23261 0,2.87608 0.20544,1.64347 0.20544,1.43803 0.6163,2.87607 0.41087,1.43804 0.61631,2.05434 1.02718,2.87607 0.41087,0.82174 2.05433,4.108682 2.25977,4.930412 0.20543,0.82174 -0.20544,-1.2326 0.41086,1.2326 0.6163,2.46521 1.23261,3.69781 0.6163,4.51954 -0.6163,0.82175 -3.90324,2.25978 -3.90324,2.25978 l -2.05433,1.64346 c 0,0 -1.2326,1.02718 -3.90324,2.25978 -2.67065,1.2326 -4.31411,1.2326 -5.75214,2.25978 -1.43805,1.02717 -1.02718,1.02717 -2.87608,1.8489 -1.84891,0.82173 -2.25978,1.43803 -3.69781,1.64346 -1.43803,0.20544 -1.8489,0 -3.90324,0.41087 -2.05434,0.41087 -3.90324,0.41087 -5.13584,0.41087 -1.23261,0 -4.10868,-0.20543 -5.54672,-0.20543 -1.43803,0 -3.0815,-0.41087 -5.13584,-0.61631 -2.05433,-0.20543 -5.34128,-1.43803 -6.16301,-1.64346 -0.82174,-0.20544 -7.39562,-1.64347 -7.39562,-1.64347 l -4.93041,-2.87607 -4.31411,-2.25978 -3.28693,-2.4652 -2.05435,-2.46521 c 0,0 -0.6163,-2.46521 0,-3.69781 0.6163,-1.2326 1.43804,-2.876072 1.84891,-4.314102 0.41087,-1.43804 1.43803,-4.31411 1.64347,-5.75215 0.20543,-1.43804 1.2326,-6.77931 1.2326,-6.77931 l 0.20543,-2.465203 -7.60105,-3.697811 -1.8489,-4.724973 1.02717,-4.108675 1.43804,-3.492376 -2.67064,-5.957579 -1.43803,-5.546713 -1.02718,-2.670636 z"
       id="path1850"
       inkscape:connector-curvature="0" />
    <path
       style="fill:#000000;fill-opacity:1;stroke:#000000;stroke-width:0.101684px;stroke-linecap:butt;stroke-linejoin:miter;stroke-opacity:1"
       d="m 143.62962,82.015154 c 0,0 9.03909,0.256794 10.2717,0.873093 0,0 0.9758,0.462228 -1e-5,1.078531 0,0 -2.67064,0.46222 -7.60105,2.00298 l -3.64645,0.71902 -2.97879,0.10271 -3.36397,-1.25828 1.15556,-2.799035 4.26275,0.205434 z"
       id="path1879"
       inkscape:connector-curvature="0"
       sodipodi:nodetypes="cccccccccc" />
    <path
       inkscape:connector-curvature="0"
       id="path1885"
       d="m 192.62106,82.015154 c 0,0 -9.03908,0.256794 -10.27169,0.873093 0,0 -0.97581,0.462228 0,1.078531 0,0 2.67064,0.46222 7.60105,2.00298 l 3.64645,0.71902 2.97879,0.10271 3.44929,-1.38098 -1.24088,-2.676335 -4.26275,0.205434 z"
       style="fill:#000000;fill-opacity:1;stroke:#000000;stroke-width:0.101684px;stroke-linecap:butt;stroke-linejoin:miter;stroke-opacity:1"
       sodipodi:nodetypes="cccccccccc" />
    <path
       style="fill:none;fill-opacity:1;fill-rule:nonzero;stroke:#000000;stroke-width:3.55896;stroke-linecap:round;stroke-linejoin:round;stroke-miterlimit:4;stroke-dasharray:none;stroke-dashoffset:0;stroke-opacity:1;paint-order:markers fill stroke"
       d="m 143.50403,83.75594 c -7.65625,0.731468 -10.34253,-0.554235 -13.07543,-3.954851 -3.64152,-9.079663 2.28907,-9.884105 0.45664,-13.083165 -2.32925,-4.066403 -3.27874,-5.989161 -5.1437,-14.327591 0.94057,-6.484153 1.1307,-7.38217 3.2609,-18.790183 3.48644,-11.762018 20.54059,-20.720376 38.92314,-20.30971"
       id="path863"
       inkscape:connector-curvature="0"
       sodipodi:nodetypes="ccsccc" />
    <path
       style="fill:none;stroke:#000000;stroke-width:3.55896;stroke-linecap:round;stroke-linejoin:miter;stroke-miterlimit:4;stroke-dasharray:none;stroke-opacity:1"
       d="m 137.9525,85.862698 c 0,0 0.32275,4.29666 -0.89543,8.77233 -1.26679,4.65428 -4.35608,7.915802 -3.77503,11.946872 0.58105,4.03106 3.78832,4.51002 8.53285,6.84608 7.4319,4.47869 8.45844,4.51714 12.38328,5.9745 9.73539,1.71156 12.42004,1.41632 14.49005,1.48895"
       id="path1488"
       inkscape:connector-curvature="0"
       sodipodi:nodetypes="cscccc" />
    <path
       sodipodi:nodetypes="ccsccc"
       inkscape:connector-curvature="0"
       id="path1497"
       d="m 192.83359,83.75594 c 7.65625,0.731468 10.34253,-0.554235 13.07543,-3.954851 3.64153,-9.079663 -2.28906,-9.884105 -0.45663,-13.083165 2.32924,-4.066403 3.27873,-5.989161 5.1437,-14.327591 -0.94058,-6.484153 -1.13071,-7.38217 -3.2609,-18.790183 -3.48645,-11.762018 -20.5406,-20.720376 -38.92314,-20.30971"
       style="fill:none;fill-opacity:1;fill-rule:nonzero;stroke:#000000;stroke-width:3.55896;stroke-linecap:round;stroke-linejoin:round;stroke-miterlimit:4;stroke-dasharray:none;stroke-dashoffset:0;stroke-opacity:1;paint-order:markers fill stroke" />
    <path
       sodipodi:nodetypes="cscccc"
       inkscape:connector-curvature="0"
       id="path1501"
       d="m 198.38512,85.862698 c 0,0 -0.32275,4.29666 0.89543,8.77233 1.2668,4.65428 4.35608,7.915802 3.77504,11.946872 -0.58106,4.03106 -3.78833,4.51002 -8.53285,6.84608 -7.43191,4.47869 -8.45845,4.51714 -12.38329,5.9745 -9.73539,1.71156 -12.42004,1.41632 -14.49004,1.48895"
       style="fill:none;stroke:#000000;stroke-width:3.55896;stroke-linecap:round;stroke-linejoin:miter;stroke-miterlimit:4;stroke-dasharray:none;stroke-opacity:1" />
    <path
       style="fill:#000000;stroke:#000000;stroke-width:0.332142px;stroke-linecap:butt;stroke-linejoin:miter;stroke-opacity:1"
       d="m 103.75187,116.9006 23.65379,2.3486 c 0,0 0.59351,6.40244 -0.50327,9.31053 -0.82902,2.19813 -1.71159,4.17318 -4.36168,5.536 -2.65011,1.36281 -7.44408,0.74084 -10.82036,0.50326 -3.37627,-0.23757 -9.31052,-1.76145 -9.31052,-1.76145 z"
       id="path1431"
       sodipodi:nodetypes="ccazzcc" />
    <path
       style="fill:#000000;stroke:#000000;stroke-width:0.332142px;stroke-linecap:butt;stroke-linejoin:miter;stroke-opacity:1"
       d="m 201.85008,145.49844 -23.65379,2.3486 c 0,0 -0.59351,6.40244 0.50327,9.31053 0.82902,2.19813 1.71159,4.17318 4.36168,5.536 2.65011,1.36281 7.44408,0.74084 10.82036,0.50326 3.37627,-0.23757 9.31052,-1.76145 9.31052,-1.76145 z"
       id="path1433"
       sodipodi:nodetypes="ccazzcc" />
    <g
       id="g1929"
       transform="translate(0.03690511)">
      <path
         style="fill:#000000;stroke:#000000;stroke-width:0.101095px;stroke-linecap:butt;stroke-linejoin:miter;stroke-opacity:1"
         d="m 148.48353,55.377919 c 0,0 12.42033,5.993533 15.74205,6.282377 3.32172,0.288846 0.28884,6.715648 -2.5274,9.315252 -2.81624,2.599606 -12.99802,3.105084 -16.60858,2.960663 -3.61057,-0.144423 -6.93229,-3.032873 -6.21017,-5.921323 0.72211,-2.888451 3.39392,-12.636969 8.80977,-12.636969 z"
         id="path1894"
         sodipodi:nodetypes="csssscc" />
      <path
         style="fill:#000000;stroke:#000000;stroke-width:0.101095px;stroke-linecap:butt;stroke-linejoin:miter;stroke-opacity:1"
         d="m 187.78029,55.377919 c 0,0 -12.42033,5.993533 -15.74205,6.282377 -3.32172,0.288846 -0.28884,6.715648 2.5274,9.315252 2.81624,2.599606 12.99802,3.105084 16.60858,2.960663 3.61057,-0.144423 6.93229,-3.032873 6.21017,-5.921323 -0.72211,-2.888451 -3.39392,-12.636969 -8.80977,-12.636969 z"
         id="path1923"
         sodipodi:nodetypes="csssscc" />
    </g>
    <circle
       style="fill:#ff0000;stroke:none;stroke-width:10.4631;stroke-linecap:round;stroke-miterlimit:4;stroke-dasharray:none"
       id="path1051"
       cx="152.9346"
       cy="64.668274"
       r="3.8754082" />
    <g
       id="g1611"
       transform="matrix(1.0024464,0,0,0.75421558,13.001425,-53.285826)">
      <path
         style="fill:#000000;stroke:#000000;stroke-width:0.264583px;stroke-linecap:butt;stroke-linejoin:miter;stroke-opacity:1"
         d="m 155.78473,180.83475 -0.51762,-16.49022 c 0,0 4.91133,10.11835 5.43399,14.13532 0.52265,4.01698 -4.91637,2.3549 -4.91637,2.3549 z"
         id="path1521"
         sodipodi:nodetypes="cczc" />
      <path
         style="fill:#000000;stroke:#000000;stroke-width:0.264583px;stroke-linecap:butt;stroke-linejoin:miter;stroke-opacity:1"
         d="m 153.7927,180.83475 0.51762,-16.49022 c 0,0 -4.91133,10.11835 -5.43399,14.13532 -0.52265,4.01698 4.91637,2.3549 4.91637,2.3549 z"
         id="path1523"
         sodipodi:nodetypes="cczc" />
    </g>
    <circle
       style="fill:#ff0000;stroke:none;stroke-width:10.4631;stroke-linecap:round;stroke-miterlimit:4;stroke-dasharray:none"
       id="circle1053"
       cx="183.40334"
       cy="64.668274"
       r="3.8754082" />
    <ellipse
       style="opacity:1;fill:none;stroke:none;stroke-width:0.793999;stroke-linecap:round;stroke-miterlimit:4;stroke-dasharray:none"
       id="path1645"
       cx="164.37076"
       cy="144.32555"
       rx="32.339611"
       ry="2.9399648" />
    <path
       style="fill:none;stroke:#000000;stroke-width:0.2;stroke-linecap:butt;stroke-linejoin:miter;stroke-opacity:1;stroke-miterlimit:4;stroke-dasharray:none"
       d="m 127.41703,54.255714 c 0,0 9.57716,-4.009043 20.3793,-4.009043 10.80215,0 10.37897,4.009043 20.3793,4.009043 10.00034,0 13.58621,-4.009043 20.37931,-4.009043 6.7931,0 20.3793,4.009043 20.3793,4.009043"
       id="path1925"
       sodipodi:nodetypes="czzzc" />
    <path
       style="fill:url(#linearGradient1939);stroke:#000000;stroke-width:0.2;stroke-linecap:butt;stroke-linejoin:miter;stroke-opacity:1;stroke-miterlimit:4;stroke-dasharray:none;fill-opacity:1"
       d="m 158.49083,33.408691 c 1.54572,5.768694 1.80865,11.143736 4.00553,14.948844 1.05088,1.82018 2.51763,2.271791 6.28259,2.271791 3.76496,0 5.73861,-0.241644 6.28259,-2.271791 1.35359,-5.051677 2.74911,-9.577684 4.18831,-14.948844 0.9099,-3.395801 -3.1779,-3.340869 -10.37951,-3.340869 -7.20161,0 -11.28941,-0.05493 -10.37951,3.340869 z"
       id="path1931"
       sodipodi:nodetypes="sszsszs" />
    <path
       style="fill:#000000;stroke:#000000;stroke-width:0.21952px;stroke-linecap:butt;stroke-linejoin:miter;stroke-opacity:1"
       d="m 187.21271,103.3735 c 0,0 -6.6322,4.93044 -19.04389,4.93044 -12.4117,0 -19.04389,-4.93044 -19.04389,-4.93044 l -1.86836,-12.780611 c 0,0 7.28288,5.414135 20.91225,5.414135 13.62937,0 20.91225,-5.414135 20.91225,-5.414135 z"
       id="path1943"
       sodipodi:nodetypes="czcczcc" />
    <rect
       style="opacity:1;fill:#000000;stroke:none;stroke-width:0.2;stroke-linecap:round;stroke-miterlimit:4;stroke-dasharray:none"
       id="rect1945"
       width="13.229842"
       height="16.169806"
       x="107.44235"
       y="90.203461"
       ry="0.80319566" />
  </g>
</svg>
