<?xml version="1.0" encoding="UTF-8" standalone="no"?>
<svg
   xmlns:dc="http://purl.org/dc/elements/1.1/"
   xmlns:cc="http://creativecommons.org/ns#"
   xmlns:rdf="http://www.w3.org/1999/02/22-rdf-syntax-ns#"
   xmlns:svg="http://www.w3.org/2000/svg"
   xmlns="http://www.w3.org/2000/svg"
   xmlns:sodipodi="http://sodipodi.sourceforge.net/DTD/sodipodi-0.dtd"
   xmlns:inkscape="http://www.inkscape.org/namespaces/inkscape"
   width="18.194206mm"
   height="17.46734mm"
   viewBox="0 0 18.194206 17.467341"
   version="1.1"
   id="svg8"
   inkscape:version="1.0.2-2 (e86c870879, 2021-01-15)"
   sodipodi:docname="burger.svg">
  <defs
     id="defs2" />
  <sodipodi:namedview
     inkscape:pagecheckerboard="true"
     id="base"
     pagecolor="#ffffff"
     bordercolor="#666666"
     borderopacity="1.0"
     inkscape:pageopacity="0.0"
     inkscape:pageshadow="2"
     inkscape:zoom="1.979899"
     inkscape:cx="-8.9829659"
     inkscape:cy="111.84148"
     inkscape:document-units="mm"
     inkscape:current-layer="layer1"
     inkscape:document-rotation="0"
     showgrid="false"
     showborder="false"
     fit-margin-top="0"
     fit-margin-left="0"
     fit-margin-right="0"
     fit-margin-bottom="0"
     inkscape:window-width="958"
     inkscape:window-height="1018"
     inkscape:window-x="946"
     inkscape:window-y="30"
     inkscape:window-maximized="0" />
  <metadata
     id="metadata5">
    <rdf:RDF>
      <cc:Work
         rdf:about="">
        <dc:format>image/svg+xml</dc:format>
        <dc:type
           rdf:resource="http://purl.org/dc/dcmitype/StillImage" />
        <dc:title />
      </cc:Work>
    </rdf:RDF>
  </metadata>
  <g
     inkscape:label="Layer 1"
     inkscape:groupmode="layer"
     id="layer1"
     transform="translate(-15.651237,-129.50805)">
    <path
       id="rect10"
       style="fill:#000000;fill-opacity:1;stroke:none;stroke-width:0.164669"
       d="m 17.135347,129.50805 h 15.225986 c 0.822197,0 1.48411,0.66192 1.48411,1.48411 v 0.22258 c 0,0.8222 -0.661913,1.48411 -1.48411,1.48411 H 17.135347 c -0.822197,0 -1.48411,-0.66191 -1.48411,-1.48411 v -0.22258 c 0,-0.82219 0.661913,-1.48411 1.48411,-1.48411 z"
       sodipodi:nodetypes="sssssssss" />
    <path
       id="rect21"
       style="fill:#000000;fill-opacity:1;stroke:none;stroke-width:0.164669"
       d="m 17.135347,136.64632 h 15.225986 c 0.822197,0 1.48411,0.66191 1.48411,1.48411 v 0.22258 c 0,0.8222 -0.661913,1.48411 -1.48411,1.48411 H 17.135347 c -0.822197,0 -1.48411,-0.66191 -1.48411,-1.48411 v -0.22258 c 0,-0.8222 0.661913,-1.48411 1.48411,-1.48411 z"
       sodipodi:nodetypes="sssssssss" />
    <path
       id="rect23"
       style="fill:#000000;fill-opacity:1;stroke:none;stroke-width:0.164669"
       d="m 17.135347,143.78459 h 15.225986 c 0.822197,0 1.48411,0.66191 1.48411,1.48411 v 0.22258 c 0,0.82219 -0.661913,1.48411 -1.48411,1.48411 H 17.135347 c -0.822197,0 -1.48411,-0.66192 -1.48411,-1.48411 v -0.22258 c 0,-0.8222 0.661913,-1.48411 1.48411,-1.48411 z"
       sodipodi:nodetypes="sssssssss" />
  </g>
</svg>
